<svg xmlns="http://www.w3.org/2000/svg" viewBox="0 0 227.24 400.81"><defs><style>.cls-1{opacity:0.1;isolation:isolate;}.cls-2{fill:#2f2e41;}.cls-3{fill:#a0616a;}.cls-4{fill:#0086ff;}.cls-5{fill:#d0cde1;}</style></defs><title>Asset 20</title><g id="Layer_2" data-name="Layer 2"><g id="Layer_1-2" data-name="Layer 1"><ellipse class="cls-1" cx="113.62" cy="390.65" rx="113.62" ry="10.17"/><path class="cls-2" d="M149.5,48.85c-.59,6.87,17.64,6.07,36.77,6.69a69.91,69.91,0,0,0,7.64-.13l2-10.79,3.23,10c17.87-4,6.44-20.67-1.84-37.9C188.42-1.72,174.57,0,174.57,0s-14.21.57-21.39,12.7C146.27,24.43,150.28,39.72,149.5,48.85Z"/><polygon class="cls-3" points="139.29 126.63 140.22 140.49 183.02 145.11 184.87 126.63 139.29 126.63"/><path class="cls-4" d="M180.86,137.41c-8.93,2.16-41.57-3.39-41.57-3.39l-5.23,21.25-5.23,17.24S96.18,378.74,96.18,383.36s37.26,3.39,48.35,2.77,17.55-180.67,17.55-180.67,2.46,175.21,3.7,179.83,27.71,2.77,42.49,1.54S202.42,235,203.65,201.15s-12.93-53.58-12.93-53.58l-1.23-10.78S189.79,135.25,180.86,137.41Z"/><circle class="cls-3" cx="174.71" cy="31.79" r="19.71"/><path class="cls-3" d="M148.69,59.34c1.76-1.18,3.63-2.51,5.43-4,5.48-4.38,10.38-9.75,9.81-14.67l19.4,2.77a16.14,16.14,0,0,0,4.43,14.41,18.76,18.76,0,0,0,3,2.4,24,24,0,0,0,3.69,2c7.24,3.15.8,7.91-7.23,11.81-2.07,1-4.25,2-6.32,2.81-5.61,2.29-10.47,3.86-10.47,3.86l-20-1.54-4-5.85L144,69.87l-3.74-5.44S144.08,62.43,148.69,59.34Z"/><path class="cls-5" d="M145.91,60.89s-2.31,1.69-8.16-.15-8.93,4.93-8.93,4.93l8.62,68.67c14.16-5.54,52.66,1.85,52.66,1.85S205.5,82.29,207,72.43s-17.09-12.16-17.09-12.16c-4.31,6.77-23.25,10-23.25,10C152.53,70.28,145.91,60.89,145.91,60.89Z"/><path class="cls-3" d="M159.92,185.75s-8.93,12.32-16.32,9.85,5.85-17.24,5.85-17.24Z"/><path class="cls-3" d="M134.06,185.75c0,1.85,13.86,11.09,17.86,6.16s-6.77-12.32-6.77-12.32S134.06,183.91,134.06,185.75Z"/><path class="cls-2" d="M182.1,100.46s.31-2.77-1.23-17.24a30.6,30.6,0,0,1,0-6.33c.84-8.4,4.75-15.59,6.89-19a18.76,18.76,0,0,0,3,2.4c-1.79,3.52-2.88,8.55-3.54,13.79a155.9,155.9,0,0,0-.78,23.61l-5.85,43.42-8.93-1.54Z"/><path class="cls-5" d="M188.25,96.45l-12.63,33.87-28.95,49,14.78,9.55s4.62-6.77,5.54-13.24S189.18,142,189.18,142s11.7-27.1,15.09-35.41,4.93-30.49,3.7-39.11-15.7-4.62-15.7-4.62C183,65.66,188.25,96.45,188.25,96.45Z"/><path class="cls-5" d="M140.83,137.1c-2.46,9.24,1.54,30.49,1.54,30.49,3.39,2.77,4.31,14.16,4.31,14.16s-8.62,1.85-12.93,5.85-3.7-21.86-3.7-21.86L127.9,125.4s-.31-4.93-2.77-19.09,3.7-40.65,3.7-40.65l6.77-1.54S143.3,127.86,140.83,137.1Z"/><path class="cls-2" d="M144,69.87l4.73-10.53c1.76-1.18,3.63-2.51,5.43-4l-7.76,18L137.45,94l8.31,43.42-4.77,2L133.13,94Z"/><polygon class="cls-2" points="155.69 24.61 172.07 24.95 173.74 13.92 176.41 24.28 181.02 24.46 181.02 18.06 183.81 24.56 193.79 24.95 189.78 7.23 170.39 4.22 156.35 11.58 155.69 24.61"/><ellipse class="cls-2" cx="125.72" cy="388.06" rx="9.57" ry="3.59"/><ellipse class="cls-2" cx="190.3" cy="388.06" rx="9.57" ry="3.59"/></g></g></svg>