<svg xmlns="http://www.w3.org/2000/svg" viewBox="0 0 163.84 200"><defs><style>.cls-1{fill:#0086ff;}.cls-2{fill:#ff0068;}</style></defs><title>Asset 2</title><g id="Layer_2" data-name="Layer 2"><g id="Layer_1-2" data-name="Layer 1"><path class="cls-1" d="M156.66,0l7.18,13.81C136,28.26,124.65,64.28,139.2,92.27A73.72,73.72,0,1,1,39.66,60.82c25-13,54.58-10.83,76.55,4.54C116.44,38.45,130.16,13.77,156.66,0ZM46.83,74.63C19,89.08,9.14,124.32,23.69,152.31a56.1,56.1,0,0,0,76,24c28-14.55,40.15-49.08,25.7-76.88C110.84,71.46,74.83,60.08,46.83,74.63Z"/><path class="cls-2" d="M73.83,118.9l13.44-10.3c3.75-3.44,16.27-1.88,18.14,3.83h0C113.9,136,91.54,163.28,60.83,155a17.22,17.22,0,0,1-5.51-2.59C37.69,139.91,35.84,120.5,43.9,106.71c5.5-9.42,19.61-7.93,23.3,2.33Z"/></g></g></svg>