<svg id="Capa_1" enable-background="new 0 0 512 512" height="512" viewBox="0 0 512 512" width="512" xmlns="http://www.w3.org/2000/svg"><g><g><g><g><g><path d="m223.07 430.677c-34.685 5.138-57.453 18.671-57.453 34.557 0 20.305 40.466 36.766 90.383 36.766s90.383-16.461 90.383-36.766c0-15.863-22.697-29.38-57.303-34.535" fill="#d0f2d2"/></g></g><g><g><path d="m426.981 180.981c0 159.154-170.981 273.754-170.981 273.754s-170.981-115.523-170.981-273.754c0-94.43 76.551-170.981 170.981-170.981s170.981 76.551 170.981 170.981z" fill="#ff9eb1"/></g></g><g><g><g><ellipse cx="256" cy="179.393" fill="#faf7f5" rx="119.779" ry="119.779" transform="matrix(.707 -.707 .707 .707 -51.869 233.562)"/></g></g></g></g><g><g><g><path d="m288.744 128.002c-18.347 0-32.741 20.457-32.741 20.457s-13.578-20.457-32.749-20.457c-18.647 0-33.875 15.38-34.871 34.002-.561 10.52 2.83 18.527 7.608 25.778 9.548 14.487 60.074 56.917 60.074 56.917s50.335-42.303 59.947-56.917c4.788-7.285 8.17-15.258 7.606-25.778-.998-18.622-16.225-34.002-34.874-34.002z" fill="#ffdfe5"/></g></g></g></g><g><path d="m348.995 384.149c25.417-28.865 45.695-58.773 60.271-88.895 18.39-38.003 27.714-76.45 27.714-114.273 0-99.793-81.187-180.981-180.98-180.981s-180.98 81.188-180.98 180.981c0 37.615 9.325 75.932 27.717 113.888 14.574 30.078 34.849 59.997 60.261 88.925 13.836 15.75 27.611 29.428 39.999 40.781-29.656 7.9-47.379 22.752-47.379 40.658 0 14.159 11.614 26.682 32.704 35.26 18.24 7.421 42.275 11.507 67.678 11.507s49.438-4.086 67.679-11.506c21.09-8.579 32.704-21.101 32.704-35.26 0-17.864-17.654-32.697-47.198-40.61 12.339-11.271 26.045-24.842 39.81-40.475zm-12.612 81.085c0 10.656-32.06 26.766-80.383 26.766s-80.383-16.11-80.383-26.766c0-8.195 16.151-19.282 46.153-24.231 16.469 13.743 27.729 21.409 28.631 22.019 1.691 1.143 3.645 1.714 5.599 1.714 1.941 0 3.884-.564 5.567-1.693.906-.607 12.239-8.262 28.799-22.018 29.913 4.959 46.017 16.033 46.017 24.209zm-70.383-30.323v-49.146c0-5.523-4.478-10-10-10s-10 4.477-10 10v49.075c-15.962-12.525-42.033-34.712-67.978-64.246-37.865-43.104-83.002-110.99-83.002-189.613 0-88.765 72.215-160.981 160.98-160.981s160.98 72.216 160.98 160.981c0 78.927-44.955 146.657-82.667 189.578-26.007 29.6-52.271 51.837-68.313 64.352z"/><g><g><g><path d="m256 350.38c-4.236 0-8.107-2.787-9.47-6.789-1.289-3.783-.12-8.093 2.876-10.731 3.266-2.875 8.179-3.268 11.871-.975 3.54 2.198 5.381 6.534 4.488 10.605-.996 4.541-5.102 7.89-9.765 7.89z"/></g></g></g><g><g><path d="m256.064 254.699c-2.286 0-4.571-.781-6.431-2.342-5.286-4.439-51.933-43.808-61.993-59.072-4.346-6.595-10.03-17.066-9.244-31.813 1.305-24.376 21.009-43.47 44.857-43.47 14.227 0 25.663 8.224 32.826 15.23 7.248-7.003 18.729-15.23 32.664-15.23 23.85 0 43.554 19.093 44.858 43.467.788 14.714-4.894 25.199-9.235 31.805-10.123 15.393-56.603 54.654-61.869 59.08-1.858 1.563-4.145 2.345-6.433 2.345zm-32.81-116.698c-12.998 0-24.162 11.007-24.887 24.537-.368 6.923 1.418 12.828 5.974 19.741 5.697 8.645 32.465 32.818 51.721 49.304 19.185-16.442 45.857-40.573 51.594-49.296 4.559-6.935 6.346-12.842 5.977-19.749-.725-13.529-11.89-24.537-24.888-24.537-10.664 0-21.359 11.721-24.581 16.237-1.911 2.679-5.011 4.265-8.318 4.205-3.291-.056-6.354-1.713-8.174-4.455-2.986-4.424-13.239-15.987-24.418-15.987z"/></g></g><g><g><path d="m256 309.171c-71.56 0-129.778-58.219-129.778-129.779s58.218-129.778 129.778-129.778 129.778 58.218 129.778 129.778-58.218 129.779-129.778 129.779zm0-239.557c-60.532 0-109.778 49.247-109.778 109.778 0 60.532 49.246 109.779 109.778 109.779s109.778-49.247 109.778-109.779c0-60.531-49.246-109.778-109.778-109.778z"/></g></g></g></g></svg>