<?xml version="1.0" encoding="utf-8"?>
<!-- Generator: Adobe Illustrator 21.0.0, SVG Export Plug-In . SVG Version: 6.00 Build 0)  -->
<svg version="1.1" id="Capa_1" xmlns="http://www.w3.org/2000/svg" xmlns:xlink="http://www.w3.org/1999/xlink" x="0px" y="0px"
	 viewBox="0 0 512 512" style="enable-background:new 0 0 512 512;" xml:space="preserve">
<style type="text/css">
	.st0{fill:#EC5569;}
	.st1{fill:#E63950;}
	.st2{fill:#FFF5F5;}
	.st3{fill:#DCE6EB;}
</style>
<g>
	<path class="st0" d="M412.4,0H99.6C47.5,0,5.3,42.2,5.3,94.3v205.2c0,52.1,42.2,94.3,94.3,94.3h44.9c2.1,0,3.9,1.7,3.9,3.9v101.2
		c0,12,14.6,17.8,22.8,9l106.2-112.9c0.7-0.8,1.8-1.2,2.8-1.2h132.2c52.1,0,94.3-42.2,94.3-94.3V94.3C506.7,42.2,464.5,0,412.4,0z"
		/>
	<path class="st1" d="M188,358.5c0-2.2-1.7-4.1-3.7-4.1h-43.5c-50.4,0-91.2-44.4-91.2-99.3V39.1c0-9.3,1.2-18.3,3.4-26.8
		C24.5,28.6,5.3,59.2,5.3,94.3v205.2c0,52.1,42.2,94.3,94.3,94.3h44.9c2.1,0,3.9,1.7,3.9,3.9v101.2c0,12,14.6,17.8,22.8,9l16.8-17.9
		L188,358.5L188,358.5z"/>
	<path class="st0" d="M361.9,122.3L361.9,122.3c-23.9-23.9-62.7-23.9-86.7,0l-13.5,13.5c-3.2,3.2-8.4,3.2-11.7,0l-13.3-13.3
		c-23.9-23.9-62.7-23.9-86.7,0l0,0c-23.9,23.9-23.9,62.7,0,86.7l100,100c3.2,3.2,8.5,3.2,11.7,0L361.9,209
		C385.8,185.1,385.8,146.3,361.9,122.3z"/>
	<path class="st2" d="M361.9,122.3L361.9,122.3c-23.9-23.9-62.7-23.9-86.7,0l-13.5,13.5c-3.2,3.2-8.4,3.2-11.7,0l-13.3-13.3
		c-23.9-23.9-62.7-23.9-86.7,0l0,0c-23.9,23.9-23.9,62.7,0,86.7l100,100c3.2,3.2,8.5,3.2,11.7,0L361.9,209
		C385.8,185.1,385.8,146.3,361.9,122.3z"/>
	<path class="st3" d="M182.1,209.2c-23.9-23.9-23.9-62.7,0-86.7l0,0c7.9-7.8,17.3-13.1,27.3-15.8c-20.5-5.5-43.3-0.3-59.4,15.8l0,0
		c-23.9,23.9-23.9,62.7,0,86.7l100,100c3.2,3.2,8.5,3.2,11.7,0l10.2-10.2L182.1,209.2z"/>
</g>
</svg>
