<svg id="Capa_1" enable-background="new 0 0 510 510" height="512" viewBox="0 0 510 510" width="512" xmlns="http://www.w3.org/2000/svg" xmlns:xlink="http://www.w3.org/1999/xlink"><linearGradient id="SVGID_1_" gradientUnits="userSpaceOnUse" x1="226.618" x2="463.046" y1="63.251" y2="299.679"><stop offset="0" stop-color="#ff819c"/><stop offset=".2594" stop-color="#ff7e9a"/><stop offset=".4757" stop-color="#fe7396"/><stop offset=".6765" stop-color="#fc628e"/><stop offset=".8668" stop-color="#fa4a83"/><stop offset="1" stop-color="#f83479"/></linearGradient><linearGradient id="lg1"><stop offset="0" stop-color="#f82814" stop-opacity="0"/><stop offset="1" stop-color="#c0272d"/></linearGradient><linearGradient id="SVGID_2_" gradientUnits="userSpaceOnUse" x1="419.971" x2="186.971" xlink:href="#lg1" y1="356.197" y2="199.197"/><radialGradient id="SVGID_3_" cx="116.381" cy="250.593" gradientTransform="matrix(1 0 0 .868 0 68.151)" gradientUnits="userSpaceOnUse" r="223.691"><stop offset="0" stop-color="#f8f6fb"/><stop offset=".3915" stop-color="#f6f0fb"/><stop offset=".8982" stop-color="#f0e0fb"/><stop offset="1" stop-color="#efdcfb"/></radialGradient><linearGradient id="SVGID_4_" gradientUnits="userSpaceOnUse" x1="175.386" x2="83.027" y1="311.436" y2="94.92"><stop offset="0" stop-color="#fff" stop-opacity="0"/><stop offset="1" stop-color="#fff"/></linearGradient><linearGradient id="SVGID_5_" gradientUnits="userSpaceOnUse" x1="310.608" x2="171.989" y1="440.644" y2="302.025"><stop offset="0" stop-color="#efdcfb" stop-opacity="0"/><stop offset=".4856" stop-color="#baaad6" stop-opacity=".486"/><stop offset="1" stop-color="#8679b2"/></linearGradient><linearGradient id="SVGID_6_" gradientUnits="userSpaceOnUse" x1="160.069" x2="239.964" y1="283.867" y2="383.624"><stop offset="0" stop-color="#ff7044"/><stop offset="1" stop-color="#f82814"/></linearGradient><linearGradient id="SVGID_7_" gradientUnits="userSpaceOnUse" x1="205.954" x2="239.037" xlink:href="#lg1" y1="357.091" y2="427.799"/><linearGradient id="SVGID_8_" gradientUnits="userSpaceOnUse" x1="197.821" x2="92.659" xlink:href="#lg1" y1="312.919" y2="205.695"/><g><g><path d="m328.545 14.031c98.935-1.614 181.051 67.987 181.454 153.884.17 36.286-14.068 69.677-38.03 96.116-19.126 21.103-7.736 52.39 21.887 60.119.272.071.545.141.818.211 5.599 1.424 6.216 8.156.955 10.344-12.589 5.236-26.685 8.175-41.578 8.175-25.654 0-48.955-8.704-66.235-22.883-2.628-2.156-6.379-2.908-9.873-2.099-16.437 3.806-33.807 5.629-51.754 5.135-95.745-2.637-172.383-71.497-172.276-154.652.107-84.287 77.942-152.773 174.632-154.35z" fill="url(#SVGID_1_)"/></g><path d="m193.587 167.711c-13.451 14.402-23.971 30.948-30.792 48.952 22.803 60.024 87.018 104.267 163.393 106.371 17.947.494 35.317-1.328 51.754-5.135 3.494-.809 7.245-.058 9.873 2.099 17.28 14.178 40.58 22.883 66.235 22.883.051 0 .102-.002.152-.002l-147.93-128.415c-29.019-26.147-68.547-43.438-112.685-46.753z" fill="url(#SVGID_2_)"/><g><path d="m181.455 167.147c-98.935-1.614-181.051 67.987-181.453 153.884-.17 36.286 14.068 69.677 38.03 96.116 19.126 21.103 7.736 52.39-21.887 60.119-.272.071-.545.141-.818.211-5.599 1.424-6.216 8.156-.955 10.344 12.589 5.236 26.685 8.175 41.578 8.175 25.654 0 48.955-8.704 66.235-22.883 2.628-2.156 6.379-2.908 9.873-2.099 16.437 3.806 33.807 5.629 51.754 5.135 95.745-2.637 172.383-71.497 172.276-154.652-.108-84.288-77.943-152.773-174.633-154.35z" fill="url(#SVGID_3_)"/><ellipse cx="178.922" cy="319.725" fill="url(#SVGID_4_)" rx="160.759" ry="139.55"/></g><path d="m355.124 337.674-80.55-80.55c-11.079-11.71-25.721-18.527-41.804-19.311-1.055-.051-2.124-.077-3.176-.077-16.81 0-32.679 6.478-44.683 18.24-2.041 2-3.926 4.119-5.66 6.334-.34-.348-.676-.698-1.024-1.039-.246-.241-.503-.465-.751-.702-.618-.659-1.247-1.309-1.895-1.945-.246-.241-.503-.466-.752-.702-.618-.658-1.246-1.309-1.895-1.945-12.005-11.763-27.873-18.241-44.682-18.241-1.052 0-2.121.026-3.176.077-17.941.875-34.103 9.237-45.509 23.548-12.315 15.453-17.354 35.677-13.825 55.49 3.895 21.862 16.169 42.992 36.528 62.963l95.472 95.472c82.985-7.971 148.775-65.851 157.382-137.612z" fill="url(#SVGID_5_)"/><g><path d="m178.922 427.745c-4.148 0-8.303-.982-12.016-2.84-11.22-5.615-33.13-17.656-53.798-35.208-26.887-22.834-42.823-47.343-47.367-72.847-3.529-19.812 1.51-40.037 13.825-55.489 11.406-14.311 27.567-22.673 45.509-23.548 1.055-.051 2.124-.078 3.176-.078 16.809 0 32.678 6.478 44.682 18.241 2.168 2.125 4.167 4.379 5.988 6.746 1.822-2.366 3.821-4.622 5.989-6.746 12.004-11.763 27.873-18.241 44.683-18.241 1.052 0 2.121.026 3.176.078 17.941.874 34.104 9.237 45.509 23.549 12.315 15.452 17.354 35.677 13.824 55.489-4.543 25.503-20.48 50.013-47.367 72.847-20.667 17.552-42.577 29.593-53.798 35.208-3.711 1.857-7.866 2.839-12.015 2.839z" fill="url(#SVGID_6_)"/><path d="m278.279 261.362c-4.275-5.364-9.219-9.893-14.674-13.505 9.959 14.789 13.82 33.12 10.615 51.111-4.543 25.503-20.48 50.013-47.367 72.847-20.667 17.552-42.577 29.593-53.798 35.208-3.713 1.858-7.868 2.84-12.016 2.84s-8.303-.982-12.016-2.84c-11.22-5.615-33.13-17.656-53.798-35.208-.885-.752-1.757-1.506-2.619-2.262 5.919 6.843 12.753 13.564 20.502 20.145 20.668 17.553 42.578 29.593 53.798 35.208 3.713 1.858 7.868 2.84 12.016 2.84s8.303-.982 12.016-2.84c11.221-5.615 33.131-17.656 53.798-35.208 26.887-22.834 42.823-47.343 47.366-72.847 3.531-19.812-1.507-40.037-13.823-55.489z" fill="url(#SVGID_7_)"/><path d="m232.77 237.813c-1.055-.051-2.124-.078-3.176-.078-16.81 0-32.679 6.478-44.683 18.241-2.168 2.125-4.167 4.38-5.989 6.746v165.024c4.148 0 8.303-.982 12.016-2.84 11.221-5.615 33.131-17.656 53.798-35.208 26.887-22.834 42.823-47.343 47.367-72.847 3.53-19.812-1.508-40.037-13.824-55.489-11.405-14.312-27.568-22.675-45.509-23.549z" fill="url(#SVGID_8_)"/></g></g></svg>