<?xml version="1.0" encoding="utf-8"?>
<!-- Generator: Adobe Illustrator 21.0.0, SVG Export Plug-In . SVG Version: 6.00 Build 0)  -->
<svg version="1.1" id="b8ea24f2-0d0e-4134-9f6b-a081050070ad"
	 xmlns="http://www.w3.org/2000/svg" xmlns:xlink="http://www.w3.org/1999/xlink" x="0px" y="0px" viewBox="0 0 783.9 868.7"
	 style="enable-background:new 0 0 783.9 868.7;" xml:space="preserve">
<style type="text/css">
	.st0{fill:#3F3D56;}
	.st1{opacity:0.1;enable-background:new    ;}
	.st2{fill:#FFFFFF;}
	.st3{fill:#D0CDE1;}
	.st4{fill:#2F2E41;}
	.st5{fill:#A0616A;}
	.st6{fill:#0086FF;}
	.st7{fill:#FF0068;}
	.st8{fill:#13E513;}
</style>
<title>enter</title>
<path class="st0" d="M533.2,538.2c427.4,286,288.5,392.6-266.6,295.5C121.6,808.3,0,701.4,0,538.2s119.4-295.5,266.6-295.5
	S397.6,447.4,533.2,538.2z"/>
<ellipse class="st1" cx="571.5" cy="801.7" rx="168.9" ry="15.1"/>
<ellipse class="st1" cx="238.4" cy="303.7" rx="89.5" ry="15.1"/>
<path class="st1" d="M233.7,340.9c-78.4,0-149.8,45-183.6,115.7c38.5-42.6,93.3-66.8,150.7-66.8c112.4,0,203.5,91.1,203.5,203.5
	c0,30.4-6.8,60.4-19.9,87.9c34-37.4,52.8-86.2,52.8-136.7C437.3,432,346.1,340.9,233.7,340.9z"/>
<path class="st2" d="M404.4,592.4c0,30.4-6.8,60.4-19.9,87.9c-38.5,42.6-93.3,66.8-150.7,66.8c-112.4,0-203.5-91.1-203.5-203.5
	c0-30.4,6.8-60.4,19.9-87.9c38.5-42.6,93.3-66.8,150.7-66.8C313.3,388.9,404.4,480,404.4,592.4z"/>
<path class="st2" d="M233.7,748.1c-112.8,0-204.5-91.7-204.5-204.5c-0.1-30.6,6.8-60.7,20-88.3C83.2,384.2,155,339,233.7,339
	c112.8,0,204.5,91.7,204.5,204.5C438.3,656.5,346.7,748,233.7,748.1C233.8,748.1,233.7,748.1,233.7,748.1z M233.7,341
	C156.2,341,84.5,386.2,51,456.1c-13.1,27.3-19.9,57.2-19.8,87.4c0,111.7,90.9,202.5,202.5,202.5c111.8,0,202.5-90.7,202.5-202.5
	c0,0,0,0,0,0C436.3,431.9,345.4,341,233.7,341L233.7,341z"/>
<path class="st3" d="M699.4,750.6c-14.8,19.3-13.1,45.5-13.1,45.5s25.7-5.2,40.4-24.5s13.1-45.5,13.1-45.5S714.1,731.3,699.4,750.6z
	"/>
<g>
	<g>
		<path class="st4" d="M562.4,292.2c-0.9,10.2,26.2,9,54.6,9.9c3.8,0.1,7.6,0.1,11.4-0.2l3-16l4.8,14.9c26.6-6,9.6-30.7-2.7-56.3
			c-13.2-27.5-33.8-24.8-33.8-24.8s-21.1,0.8-31.8,18.9C557.6,255.9,563.5,278.7,562.4,292.2z"/>
		<polygon class="st5" points="547.2,407.8 548.6,428.4 612.2,435.3 614.9,407.8 		"/>
		<path class="st6" d="M609,423.9c-13.3,3.2-61.8-5-61.8-5l-7.8,31.6l-7.8,25.6c0,0-48.5,306.5-48.5,313.4s55.4,5,71.8,4.1
			S581.1,525,581.1,525s3.7,260.4,5.5,267.3s41.2,4.1,63.2,2.3s-8.7-225.6-6.9-276S623.6,439,623.6,439l-1.8-16
			C621.8,422.9,622.2,420.7,609,423.9z"/>
		<circle class="st5" cx="599.8" cy="266.9" r="29.3"/>
		<path class="st5" d="M561.1,307.8c2.6-1.7,5.4-3.7,8.1-5.9c8.2-6.5,15.4-14.5,14.6-21.8l28.8,4.1c-1.5,7.8,1,15.8,6.6,21.4
			c1.3,1.3,2.8,2.5,4.4,3.6c1.7,1.1,3.6,2.1,5.5,2.9c10.8,4.7,1.2,11.8-10.7,17.5c-3.1,1.5-6.3,2.9-9.4,4.2
			c-8.3,3.4-15.6,5.7-15.6,5.7l-29.7-2.3l-6-8.7l-3.6-5.2l-5.6-8.1C548.6,315.4,554.3,312.4,561.1,307.8z"/>
		<path class="st3" d="M557,310.1c0,0-3.4,2.5-12.1-0.2s-13.3,7.3-13.3,7.3l12.8,102.1c21.1-8.2,78.3,2.7,78.3,2.7
			s22.9-80.1,25.2-94.7s-25.4-18.1-25.4-18.1c-6.4,10.1-34.6,14.9-34.6,14.9C566.9,324.1,557,310.1,557,310.1z"/>
		<path class="st5" d="M577.9,495.7c0,0-13.3,18.3-24.3,14.6c-11-3.7,8.7-25.6,8.7-25.6L577.9,495.7z"/>
		<path class="st5" d="M539.4,495.7c0,2.7,20.6,16.5,26.5,9.2c5.9-7.3-10.1-18.3-10.1-18.3S539.4,493,539.4,495.7z"/>
		<path class="st4" d="M610.8,368.9c0,0,0.5-4.1-1.8-25.6c-0.3-3.1-0.3-6.3,0-9.4c1.2-12.5,7.1-23.2,10.2-28.2
			c1.3,1.3,2.8,2.5,4.4,3.6c-2.7,5.2-4.3,12.7-5.3,20.5c-1.3,11.6-1.7,23.4-1.2,35.1l-8.7,64.5l-13.3-2.3L610.8,368.9z"/>
		<path class="st3" d="M620,363l-18.8,50.3l-43,72.8l22,14.2c0,0,6.9-10.1,8.2-19.7s33-49.9,33-49.9s17.4-40.3,22.4-52.6
			s7.3-45.3,5.5-58.1s-23.3-6.9-23.3-6.9C612.2,317.2,620,363,620,363z"/>
		<path class="st3" d="M549.5,423.4c-3.7,13.7,2.3,45.3,2.3,45.3c5,4.1,6.4,21.1,6.4,21.1s-12.8,2.7-19.2,8.7s-5.5-32.5-5.5-32.5
			l-3.2-60c0,0-0.5-7.3-4.1-28.4s5.5-60.4,5.5-60.4l10.1-2.3C541.7,314.9,553.1,409.7,549.5,423.4z"/>
		<path class="st4" d="M554.1,323.5l7-15.7c2.6-1.7,5.4-3.7,8.1-5.9l-11.5,26.7l-13.2,30.7l12.4,64.5l-7.1,3L538,359.3L554.1,323.5z
			"/>
		<polygon class="st4" points="571.6,256.2 595.9,256.7 598.4,240.3 602.4,255.7 609.2,256 609.2,246.5 613.3,256.2 628.2,256.7 
			622.2,230.4 593.4,225.9 572.5,236.9 		"/>
	</g>
	<ellipse class="st4" cx="527" cy="796.4" rx="14.2" ry="5.3"/>
	<ellipse class="st4" cx="623" cy="796.4" rx="14.2" ry="5.3"/>
</g>
<path class="st6" d="M189.5,581c-14.8,3.3-34.5,5.3-48.8,3.2l18,13.7l-50.4,32.5l2.7,4.2l50.4-32.5l5.1,22.1
	C170.5,610.2,180.4,593.1,189.5,581z"/>
<g>
	<path class="st6" d="M311.9,445.3l5,9.6c-19.4,10.1-27.3,35.2-17.2,54.7c13.1,25.2,3.2,56.2-22,69.3c-25.2,13.1-56.1,3.4-69.2-21.9
		c-13.1-25.2-3.4-56.2,21.8-69.3c17.4-9.1,38-7.5,53.4,3.2C283.9,472.1,293.4,454.9,311.9,445.3z M235.3,497.3
		c-19.4,10.1-26.3,34.6-16.1,54.2c10.1,19.4,33.6,26.8,53,16.7c19.5-10.1,28-34.2,17.9-53.6C280,495.1,254.9,487.2,235.3,497.3z"/>
	<path class="st7" d="M254.2,528.2l9.4-7.2c2.6-2.4,11.3-1.3,12.6,2.7l0,0c5.9,16.4-9.7,35.4-31.1,29.7c-1.4-0.4-2.7-1-3.8-1.8
		c-12.3-8.7-13.6-22.3-8-31.9c3.8-6.6,13.7-5.5,16.2,1.6L254.2,528.2z"/>
</g>
<g>
	
		<image style="overflow:visible;opacity:0.1;" width="197" height="197" xlink:href="C88685690FB2E06E.png"  transform="matrix(1 0 0 1 151 121.7337)">
	</image>
	<g>
		<path class="st8" d="M243.7,144.2c-37.5,0-68,30.5-68,68s30.5,68,68,68s68-30.5,68-68S281.2,144.2,243.7,144.2z M235.2,245.4
			l-27.3-27.3l12-12l15.2,15.2l32.2-32.2l12,12L235.2,245.4L235.2,245.4z"/>
	</g>
</g>
</svg>
